# xmcd
#
# Track frame offsets:
#	150
#	18835
#	35145
#	49280
#	65895
#	80783
#	99397
#	115932
#	132087
#	149057
#	173160
#	192573
#	211860
#	239490
#	259028
#
# Disc length: 3664 seconds
#
# Revision: 1
# Processed by: cddbd v1.5.1PL0 Copyright (c) Steve Scherf et al.
# Submitted via: CDex 1.50Beta5
#
DISCID=e60e4e0f
DTITLE=五輪真弓 - MAYUMI CLASSICS Disc 2
DYEAR=2002
DGENRE=
TTITLE0=恋人よ
TTITLE1=潮騒
TTITLE2=抱きしめて(愛は夢のように)
TTITLE3=国境
TTITLE4=さよならだけは言わないで
TTITLE5=恋しても
TTITLE6=残り火
TTITLE7=合鍵
TTITLE8=リバイバル
TTITLE9=巴里の旅情
TTITLE10=せめて愛を
TTITLE11=瞼をとじて
TTITLE12=ジャングルジム
TTITLE13=少女
TTITLE14=名もなき道
EXTD=
EXTT0=
EXTT1=
EXTT2=
EXTT3=
EXTT4=
EXTT5=
EXTT6=
EXTT7=
EXTT8=
EXTT9=
EXTT10=
EXTT11=
EXTT12=
EXTT13=
EXTT14=
PLAYORDER=
